<svg width="34" height="24" viewBox="0 0 34 24" fill="none" xmlns="http://www.w3.org/2000/svg">
<rect x="0.5" y="0.5" width="33" height="23" rx="3.5" fill="white"/>
<path d="M16.1527 11.1874C14.924 11.1874 13.9246 12.1867 13.9246 13.415C13.9246 14.6433 14.924 15.6427 16.1527 15.6427C17.3807 15.6427 18.3799 14.6433 18.3799 13.415C18.3797 12.1867 17.3807 11.1874 16.1527 11.1874ZM16.1527 15.1602C15.19 15.1602 14.407 14.3774 14.407 13.415C14.407 12.4529 15.1902 11.6698 16.1527 11.6698C17.1147 11.6698 17.8974 12.4527 17.8974 13.415C17.8972 14.3774 17.1147 15.1602 16.1527 15.1602Z" fill="black"/>
<path d="M11.4673 11.1874C11.334 11.1874 11.2261 11.2953 11.2261 11.4286V15.4014C11.2261 15.5348 11.334 15.6427 11.4673 15.6427C11.6006 15.6427 11.7085 15.5348 11.7085 15.4014V11.4286C11.7085 11.2954 11.6006 11.1874 11.4673 11.1874Z" fill="black"/>
<path d="M20.7622 11.1874C20.6289 11.1874 20.521 11.2953 20.521 11.4286V15.4014C20.521 15.5348 20.6289 15.6427 20.7622 15.6427C20.8955 15.6427 21.0034 15.5348 21.0034 15.4014V11.4286C21.0034 11.2954 20.8954 11.1874 20.7622 11.1874Z" fill="black"/>
<path d="M24.6944 7H12.9788C12.8455 7 12.7376 7.10791 12.7376 7.24123V8.42291H11.6667C11.5334 8.42291 11.4255 8.53082 11.4255 8.66414V9.97834H10.2412C10.1079 9.97834 10 10.0863 10 10.2196V16.6101C10 16.7435 10.1079 16.8514 10.2412 16.8514H21.9568C22.0901 16.8514 22.198 16.7435 22.198 16.6101V15.2959H23.3823C23.5156 15.2959 23.6235 15.188 23.6235 15.0547V13.8724H24.6944C24.8277 13.8724 24.9356 13.7645 24.9356 13.6312V7.24107C24.9356 7.10807 24.8275 7 24.6944 7ZM21.7156 16.3691H10.4825V10.461H21.7156V16.3691ZM22.198 14.8136V10.2197C22.198 10.0864 22.0901 9.9785 21.9568 9.9785H11.9079V8.90553H23.1411V14.8136H22.198ZM24.4532 13.3901H23.6235V8.66414C23.6235 8.53082 23.5156 8.42291 23.3823 8.42291H13.2201V7.48245H24.4532V13.3901Z" fill="black"/>
<rect x="0.5" y="0.5" width="33" height="23" rx="3.5" stroke="#F5F5F5"/>
</svg>
