<svg width="34" height="30" viewBox="0 0 34 30" fill="none" xmlns="http://www.w3.org/2000/svg">
<path d="M16.8858 18.0014C18.938 18.0014 20.6016 16.5084 20.6016 14.6666C20.6016 12.8249 18.938 11.3319 16.8858 11.3319C14.8336 11.3319 13.1699 12.8249 13.1699 14.6666C13.1699 16.5084 14.8336 18.0014 16.8858 18.0014Z" fill="#CC274B"/>
<path d="M31.7491 13.3389H29.5127C28.8246 8.08983 24.1798 3.9214 18.3652 3.33474V1.32772C18.3652 0.586667 17.7115 0 16.8857 0C16.06 0 15.4062 0.586667 15.4062 1.32772V3.33474C9.55722 3.95228 4.91241 8.1207 4.2587 13.3389H2.02231C1.19656 13.3389 0.542847 13.9256 0.542847 14.6667C0.542847 15.4077 1.19656 15.9944 2.02231 15.9944H4.2587C4.94682 21.2435 9.59163 25.4119 15.4062 25.9986V28.0056C15.4062 28.7467 16.06 29.3333 16.8857 29.3333C17.7115 29.3333 18.3652 28.7467 18.3652 28.0056V25.9986C24.2142 25.3811 28.859 21.2126 29.5127 15.9944H31.7491C32.5748 15.9944 33.2286 15.4077 33.2286 14.6667C33.2286 13.9256 32.5748 13.3389 31.7491 13.3389ZM18.3652 23.3432V21.5214C18.3652 20.7804 17.7115 20.1937 16.8857 20.1937C16.06 20.1937 15.4062 20.7804 15.4062 21.5214V23.3432C11.1743 22.7565 7.83692 19.7614 7.21761 15.9944H9.24757C10.0733 15.9944 10.727 15.4077 10.727 14.6667C10.727 13.9256 10.0733 13.3389 9.24757 13.3389H7.21761C7.87133 9.54105 11.2087 6.54597 15.4062 5.99018V7.81193C15.4062 8.55298 16.06 9.13965 16.8857 9.13965C17.7115 9.13965 18.3652 8.55298 18.3652 7.81193V5.99018C22.5971 6.57684 25.9345 9.57193 26.5538 13.3389H24.5238C23.6981 13.3389 23.0444 13.9256 23.0444 14.6667C23.0444 15.4077 23.6981 15.9944 24.5238 15.9944H26.5538C25.9001 19.7614 22.5627 22.7565 18.3652 23.3432Z" fill="#CC274B"/>
</svg>
