<svg stroke="#DD5B63" width="15" height="15" viewBox="0 0 15 15" fill="none" xmlns="http://www.w3.org/2000/svg">
<path d="M7.5 2.625V1M7.5 2.625C6.60254 2.625 5.875 3.35254 5.875 4.25C5.875 5.14746 6.60254 5.875 7.5 5.875M7.5 2.625C8.39746 2.625 9.125 3.35254 9.125 4.25C9.125 5.14746 8.39746 5.875 7.5 5.875M2.625 12.375C3.52246 12.375 4.25 11.6475 4.25 10.75C4.25 9.85254 3.52246 9.125 2.625 9.125M2.625 12.375C1.72754 12.375 1 11.6475 1 10.75C1 9.85254 1.72754 9.125 2.625 9.125M2.625 12.375V14M2.625 9.125L2.625 1M7.5 5.875L7.5 14M12.375 12.375C13.2725 12.375 14 11.6475 14 10.75C14 9.85254 13.2725 9.125 12.375 9.125M12.375 12.375C11.4775 12.375 10.75 11.6475 10.75 10.75C10.75 9.85254 11.4775 9.125 12.375 9.125M12.375 12.375V14M12.375 9.125L12.375 1"  stroke-width="1.5" stroke-linecap="round" stroke-linejoin="round"/>
</svg>
