<svg width="628" height="800" viewBox="0 0 628 800" fill="none" xmlns="http://www.w3.org/2000/svg">
<path d="M77.6952 290.6C72.8063 290.6 68.0197 288.134 65.2615 283.654C56.3011 269.133 39.5624 252.336 20.3428 252.949C12.1704 252.511 5.54499 246.849 5.31149 238.808C5.0634 230.738 11.397 224.01 19.4526 223.762C50.201 222.843 76.4255 246.148 90.0996 268.345C94.3317 275.204 92.2011 284.194 85.3421 288.426C82.9634 289.9 80.3074 290.6 77.6952 290.6Z" fill="#436B1C"/>
<path d="M376.38 96.2732C374.424 67.8451 350.798 45.3711 321.873 45.3711C321.786 45.3711 321.713 45.3857 321.625 45.3857C322.136 41.0807 321.844 36.5275 320.458 31.7846C316.547 18.4462 304.814 8.20154 291.008 6.55248C279.684 5.20988 269.293 9.26687 262.011 16.4615C255.079 10.2008 246.002 6.28979 235.932 6.28979C214.349 6.28979 196.866 23.7874 196.866 45.3565C196.866 45.4295 196.88 45.4879 196.88 45.5608C170.656 47.5456 149.977 69.4212 149.977 96.1564C149.977 100.243 150.517 104.197 151.421 108.006C120.206 109.305 95.2804 134.961 95.2804 166.497C95.2804 177.179 98.1845 187.161 103.175 195.786C93.5875 203.667 87.4583 215.619 87.4583 229.001C87.4583 241.23 92.6389 252.19 100.84 259.997C136.04 231.234 173.02 327.434 216.567 404.239C231.029 429.749 387.281 402.576 399.73 418.424C413.914 405.67 423.079 183.557 423.473 164.045C424.086 132.742 404.21 106.036 376.38 96.2732Z" fill="#88C057"/>
<path d="M396.358 387.209L406.763 380.977C426.027 369.419 450.077 369.419 469.326 380.977L479.731 387.209C498.994 398.767 523.044 398.767 542.293 387.209L571.699 374.133C576.019 362.079 579.025 353.352 580.222 349.485C607.657 261.238 625.33 168.321 627.738 75.6381C628.701 38.3664 597.88 -19.7595 546.671 6.65472C496.338 32.6019 460.292 132.115 434.958 179.369C398.971 246.513 370.513 319.539 350.243 393.951C365.683 397.848 382.29 395.644 396.358 387.209Z" fill="#EEAF4B"/>
<path d="M16.9572 372.221L36.5854 383.998C59.1323 397.527 87.2977 397.527 109.845 383.998L114.894 380.963C134.157 369.405 158.207 369.405 177.456 380.963L187.861 387.194C199.171 393.98 212.13 396.666 224.798 395.483C234.137 365.319 231 327.609 216.523 302.085C167.839 216.203 127.342 233.7 88.3777 270.986C80.9058 278.137 71.7703 283.376 61.8175 286.222C19.0878 298.437 -12.4487 318.415 5.4867 372.82C8.65348 370.514 13.0607 369.886 16.9572 372.221Z" fill="#ED3F32"/>
<path d="M433.411 355.439C431.864 355.439 430.274 355.191 428.727 354.665C421.094 352.068 417.008 343.779 419.606 336.146C429.34 307.514 460.599 292.191 489.188 301.823C502.599 306.39 517.207 299.181 521.76 285.77C524.343 278.137 532.603 274.022 540.279 276.634C547.912 279.232 551.998 287.521 549.4 295.153C539.681 323.8 508.451 339.182 479.819 329.477C466.422 324.924 451.814 332.148 447.246 345.53C445.159 351.63 439.482 355.439 433.411 355.439Z" fill="#A46F3E"/>
<path d="M467.925 253.766C466.378 253.766 464.787 253.518 463.24 252.993C455.608 250.395 451.522 242.106 454.119 234.473C458.833 220.595 468.669 209.373 481.803 202.893C494.937 196.414 509.808 195.436 523.701 200.15C537.142 204.732 551.721 197.508 556.274 184.082C558.857 176.435 567.146 172.334 574.778 174.947C582.411 177.544 586.497 185.833 583.899 193.466C574.18 222.127 542.95 237.48 514.317 227.804C507.823 225.586 500.848 226.038 494.704 229.074C488.56 232.109 483.963 237.348 481.745 243.857C479.687 249.943 474.01 253.766 467.925 253.766Z" fill="#A46F3E"/>
<path d="M502.453 152.079C500.906 152.079 499.315 151.831 497.754 151.305C490.122 148.708 486.035 140.419 488.633 132.786C497.156 107.656 524.577 94.1718 549.707 102.665C554.523 104.3 559.659 103.979 564.198 101.746C568.737 99.5131 572.137 95.6312 573.771 90.8299C576.354 83.1975 584.629 79.0968 592.291 81.6944C599.923 84.2921 604.009 92.5812 601.411 100.214C597.267 112.399 588.642 122.25 577.113 127.927C565.57 133.618 552.509 134.45 540.323 130.32C530.429 126.949 519.63 132.275 516.273 142.184C514.201 148.255 508.524 152.079 502.453 152.079Z" fill="#A46F3E"/>
<path d="M255.05 205.695C241.259 224.039 219.5 245.754 227.877 284.106L250.409 387.209L260.829 380.977C280.092 369.419 304.142 369.419 323.391 380.977L333.796 387.209C342.261 392.287 350.243 393.966 350.243 393.966C365.45 338.175 385.253 283.157 409.376 230.825C398.081 202.572 373.958 193.116 356.445 183.44C356.343 183.382 356.241 183.323 356.154 183.28C345.077 176.931 344.391 161.769 352.724 152.108C356.008 148.299 357.525 143.06 356.387 137.806L354.621 129.751C352.68 120.878 343.837 115.216 334.978 117.156L246.294 136.507C237.421 138.448 231.759 147.292 233.7 156.15L235.465 164.206C236.633 169.576 240.34 173.735 245.039 175.764C255.823 180.419 262.405 192.459 256.889 202.835C256.363 203.813 255.75 204.761 255.05 205.695Z" fill="#DAE7EF"/>
<path d="M348.098 159.054L247.709 180.988C236.633 183.411 225.571 176.318 223.148 165.242L221.704 158.646C219.281 147.569 226.374 136.507 237.45 134.085L337.839 112.151C348.915 109.728 359.977 116.821 362.399 127.897L363.844 134.494C366.267 145.585 359.174 156.632 348.098 159.054Z" fill="white"/>
<path d="M597.209 369.682L571.743 734.942C569.875 771.411 539.769 800.015 503.256 800.015H93.6021C57.0892 800.015 26.9828 771.411 25.1149 734.942L0.262182 381.663C-0.161029 373.36 8.84315 367.945 15.9794 372.221L35.6076 383.998C58.1545 397.526 86.3199 397.526 108.867 383.998L113.916 380.963C133.18 369.405 157.23 369.405 176.478 380.963L186.884 387.209C206.147 398.767 230.197 398.767 249.446 387.209L259.851 380.963C279.114 369.405 303.164 369.405 322.413 380.963L332.818 387.209C352.082 398.767 376.132 398.767 395.381 387.209L405.786 380.963C425.049 369.405 449.099 369.405 468.348 380.963L478.753 387.209C498.017 398.767 522.067 398.767 541.315 387.209L590.744 365.246C593.881 363.845 597.384 366.253 597.209 369.682Z" fill="#FBD490"/>
<path d="M175.369 612.926H73.2151C65.1595 612.926 58.6216 606.403 58.6216 598.333C58.6216 590.263 65.1595 583.739 73.2151 583.739H175.369C183.425 583.739 189.963 590.263 189.963 598.333C189.963 606.403 183.425 612.926 175.369 612.926Z" fill="#E0B877"/>
<path d="M204.556 671.3H73.2151C65.1595 671.3 58.6216 664.777 58.6216 656.707C58.6216 648.637 65.1595 642.113 73.2151 642.113H204.556C212.612 642.113 219.15 648.637 219.15 656.707C219.15 664.777 212.612 671.3 204.556 671.3Z" fill="#E0B877"/>
<path d="M233.743 729.674H73.2151C65.1595 729.674 58.6216 723.151 58.6216 715.081C58.6216 707.01 65.1595 700.487 73.2151 700.487H233.743C241.799 700.487 248.337 707.01 248.337 715.081C248.337 723.151 241.799 729.674 233.743 729.674Z" fill="#E0B877"/>
<path d="M321.304 729.674H292.117C284.062 729.674 277.524 723.151 277.524 715.081C277.524 707.01 284.062 700.487 292.117 700.487H321.304C329.36 700.487 335.898 707.01 335.898 715.081C335.898 723.151 329.36 729.674 321.304 729.674Z" fill="#E0B877"/>
</svg>
