<svg width="22" height="18" viewBox="0 0 22 18" fill="none" xmlns="http://www.w3.org/2000/svg">
<path d="M14.5 3.75C14.5 5.683 12.933 7.25 11 7.25C9.067 7.25 7.5 5.683 7.5 3.75C7.5 1.817 9.067 0.25 11 0.25C12.933 0.25 14.5 1.817 14.5 3.75Z" fill="white"/>
<path d="M20.3333 6.08333C20.3333 7.372 19.2887 8.41667 18 8.41667C16.7113 8.41667 15.6667 7.372 15.6667 6.08333C15.6667 4.79467 16.7113 3.75 18 3.75C19.2887 3.75 20.3333 4.79467 20.3333 6.08333Z" fill="white"/>
<path d="M15.6667 14.25C15.6667 11.6727 13.5773 9.58333 11 9.58333C8.42267 9.58333 6.33333 11.6727 6.33333 14.25V16.75C6.33333 17.3023 6.78105 17.75 7.33333 17.75H14.6667C15.219 17.75 15.6667 17.3023 15.6667 16.75V14.25Z" fill="white"/>
<path d="M6.33333 6.08333C6.33333 7.372 5.28866 8.41667 4 8.41667C2.71134 8.41667 1.66667 7.372 1.66667 6.08333C1.66667 4.79467 2.71134 3.75 4 3.75C5.28866 3.75 6.33333 4.79467 6.33333 6.08333Z" fill="white"/>
<path d="M19 17.75C18.4477 17.75 18 17.3023 18 16.75V14.25C18 13.3341 17.8241 12.4594 17.5043 11.6576C17.3387 11.2424 17.553 10.75 18 10.75C19.933 10.75 21.5 12.317 21.5 14.25V16.75C21.5 17.3023 21.0523 17.75 20.5 17.75H19Z" fill="white"/>
<path d="M4 10.75C4.44697 10.75 4.66134 11.2424 4.49573 11.6576C4.17589 12.4594 4 13.3341 4 14.25V16.75C4 17.3023 3.55228 17.75 3 17.75H1.5C0.947715 17.75 0.5 17.3023 0.5 16.75V14.25C0.5 12.317 2.067 10.75 4 10.75Z" fill="white"/>
</svg>
