<svg width="24" height="24" stroke="red" fill="white" viewBox="0 0 24 24" fill="none" xmlns="http://www.w3.org/2000/svg">
<path d="M19.5375 6.0825C18.7622 5.25706 17.7408 4.70443 16.6257 4.50709C15.5105 4.30975 14.3615 4.47827 13.35 4.9875C12.9313 5.1985 12.4689 5.30841 12 5.30841C11.5311 5.30841 11.0687 5.1985 10.65 4.9875C9.64281 4.48726 8.5016 4.32367 7.39443 4.5208C6.28726 4.71793 5.27265 5.26537 4.50001 6.0825C3.56212 7.12288 3.06586 8.48737 3.11626 9.88717C3.16665 11.287 3.75974 12.6123 4.77001 13.5825L9.91501 18.7275C10.1936 19.0064 10.5245 19.2277 10.8887 19.3787C11.2529 19.5297 11.6433 19.6074 12.0375 19.6074C12.4318 19.6074 12.8221 19.5297 13.1863 19.3787C13.5505 19.2277 13.8814 19.0064 14.16 18.7275L19.305 13.5825C20.31 12.6073 20.8963 11.2793 20.9396 9.87957C20.983 8.47983 20.4802 7.11811 19.5375 6.0825V6.0825Z"  stroke-width="2" stroke-linecap="round" stroke-linejoin="round"/>
</svg>
