<svg width="19" height="19" viewBox="0 0 19 19" fill="none" xmlns="http://www.w3.org/2000/svg">
<path d="M11.1704 13.9115C10.9715 13.9139 10.7814 13.994 10.6407 14.1347C10.5 14.2754 10.4199 14.4655 10.4175 14.6645V16.3857C10.4183 16.4001 10.4161 16.4144 10.411 16.4279C10.4059 16.4413 10.3979 16.4535 10.3878 16.4637C10.3776 16.4738 10.3654 16.4817 10.352 16.4869C10.3385 16.492 10.3242 16.4942 10.3098 16.4934H2.60528C2.59093 16.4942 2.57656 16.492 2.56313 16.4869C2.54969 16.4817 2.53749 16.4738 2.52732 16.4637C2.51716 16.4535 2.50925 16.4413 2.50414 16.4279C2.49902 16.4144 2.49679 16.4001 2.49762 16.3857V2.61358C2.49679 2.59923 2.49902 2.58486 2.50414 2.57143C2.50925 2.55799 2.51716 2.54579 2.52732 2.53562C2.53749 2.52546 2.54969 2.51756 2.56313 2.51244C2.57656 2.50732 2.59093 2.50509 2.60528 2.50592H10.3091C10.3235 2.50509 10.3378 2.50732 10.3513 2.51244C10.3647 2.51756 10.3769 2.52546 10.3871 2.53562C10.3972 2.54579 10.4051 2.55799 10.4103 2.57143C10.4154 2.58486 10.4176 2.59923 10.4168 2.61358V4.33483C10.4168 4.53462 10.4961 4.72623 10.6374 4.86751C10.7787 5.00878 10.9703 5.08815 11.1701 5.08815C11.3699 5.08815 11.5615 5.00878 11.7028 4.86751C11.844 4.72623 11.9234 4.53462 11.9234 4.33483V2.61358C11.9193 2.18677 11.7479 1.7786 11.4461 1.47685C11.1442 1.1751 10.7359 1.00388 10.3091 1H2.60528C2.17859 1.00406 1.77053 1.17537 1.4688 1.4771C1.16707 1.77883 0.995761 2.18689 0.991699 2.61358V16.3864C0.995761 16.8131 1.16707 17.2212 1.4688 17.5229C1.77053 17.8246 2.17859 17.9959 2.60528 18H10.3091C10.7358 17.9959 11.1439 17.8246 11.4456 17.5229C11.7473 17.2212 11.9186 16.8131 11.9227 16.3864V14.6652C11.9205 14.4662 11.8406 14.276 11.7 14.1352C11.5595 13.9944 11.3694 13.9141 11.1704 13.9115Z" fill="#DD5B63" stroke="white" stroke-width="0.5"/>
<path d="M17.7317 8.9837L14.2042 5.49799C14.0616 5.35522 13.868 5.27497 13.6662 5.2749C13.4643 5.27484 13.2707 5.35496 13.1279 5.49764C12.9851 5.64032 12.9049 5.83387 12.9048 6.03572C12.9048 6.23757 12.9849 6.43118 13.1276 6.57395L15.3439 8.74712H5.87636C5.67657 8.74712 5.48496 8.82648 5.34369 8.96776C5.20241 9.10903 5.12305 9.30064 5.12305 9.50043C5.12305 9.70022 5.20241 9.89183 5.34369 10.0331C5.48496 10.1744 5.67657 10.2537 5.87636 10.2537H15.3447L13.1488 12.4269C13.078 12.4977 13.0218 12.5817 12.9834 12.6741C12.945 12.7666 12.9253 12.8657 12.9252 12.9658C12.9251 13.0659 12.9448 13.1651 12.983 13.2576C13.0213 13.3501 13.0774 13.4342 13.1481 13.505C13.2189 13.5758 13.3029 13.632 13.3953 13.6704C13.4878 13.7088 13.5869 13.7286 13.687 13.7286C13.7871 13.7287 13.8863 13.709 13.9788 13.6708C14.0713 13.6325 14.1554 13.5764 14.2262 13.5057L17.7317 10.0349C17.8026 9.9669 17.859 9.88531 17.8975 9.79498C17.9361 9.70466 17.9559 9.60748 17.9559 9.50928C17.9559 9.41109 17.9361 9.31391 17.8975 9.22358C17.859 9.13326 17.8026 9.05166 17.7317 8.9837Z" fill="#DD5B63" stroke="white" stroke-width="0.5"/>
</svg>
