<svg width="24" height="24" viewBox="0 0 24 24" fill="none" xmlns="http://www.w3.org/2000/svg">
<path d="M15 15.75C15.8284 15.75 16.5 15.0784 16.5 14.25C16.5 13.4216 15.8284 12.75 15 12.75C14.1716 12.75 13.5 13.4216 13.5 14.25C13.5 15.0784 14.1716 15.75 15 15.75Z" stroke="#8F93A0" stroke-width="1.5" stroke-linecap="round" stroke-linejoin="round"/>
<path d="M18.75 14.25C18.75 14.6478 18.592 15.0294 18.3107 15.3107C18.0294 15.592 17.6478 15.75 17.25 15.75C17.037 15.7497 16.8265 15.7041 16.6326 15.6162C16.4386 15.5282 16.2656 15.4 16.125 15.24C16.3655 14.9663 16.4981 14.6144 16.4981 14.25C16.4981 13.8856 16.3655 13.5337 16.125 13.26C16.2656 13.1 16.4386 12.9718 16.6326 12.8838C16.8265 12.7959 17.037 12.7503 17.25 12.75C17.6478 12.75 18.0294 12.908 18.3107 13.1893C18.592 13.4706 18.75 13.8522 18.75 14.25Z" stroke="#8F93A0" stroke-width="1.5" stroke-linecap="round" stroke-linejoin="round"/>
<path d="M2.25 9.75H21.75V15.75C21.75 16.5456 21.4339 17.3087 20.8713 17.8713C20.3087 18.4339 19.5456 18.75 18.75 18.75H5.25C4.45435 18.75 3.69129 18.4339 3.12868 17.8713C2.56607 17.3087 2.25 16.5456 2.25 15.75V9.75Z" stroke="#8F93A0" stroke-width="1.5" stroke-linecap="round" stroke-linejoin="round"/>
<path d="M5.25 5.25H18.75C19.5456 5.25 20.3087 5.56607 20.8713 6.12868C21.4339 6.69129 21.75 7.45435 21.75 8.25V9.75H2.25V8.25C2.25 7.45435 2.56607 6.69129 3.12868 6.12868C3.69129 5.56607 4.45435 5.25 5.25 5.25V5.25Z" stroke="#8F93A0" stroke-width="1.5" stroke-linecap="round" stroke-linejoin="round"/>
</svg>
