<svg  stroke="#CC274B" width="38" height="38" viewBox="0 0 38 38" fill="none" xmlns="http://www.w3.org/2000/svg">
<path d="M25.8925 16.3451L16.8925 25.3451C16.6855 25.5478 16.4256 25.6881 16.1425 25.7501L13.4875 26.2826C13.2458 26.3304 12.9961 26.3179 12.7603 26.2463C12.5246 26.1746 12.3101 26.046 12.1359 25.8718C11.9616 25.6975 11.833 25.4831 11.7614 25.2473C11.6897 25.0116 11.6772 24.7618 11.725 24.5201L12.25 21.8876C12.312 21.6046 12.4524 21.3447 12.655 21.1376L21.535 12.2501C21.825 11.953 22.1714 11.7169 22.5539 11.5558C22.9365 11.3946 23.3474 11.3115 23.7625 11.3115C24.1776 11.3115 24.5886 11.3946 24.9711 11.5558C25.3537 11.7169 25.7001 11.953 25.99 12.2501C26.5067 12.8201 26.7847 13.5667 26.7666 14.3358C26.7485 15.1049 26.4355 15.8377 25.8925 16.3826V16.3451Z" stroke-width="2" stroke-linecap="round" stroke-linejoin="round"/>
</svg>
