<svg width="14" fill="#E73941" height="14" viewBox="0 0 14 14"  xmlns="http://www.w3.org/2000/svg">
<path fill-rule="evenodd" clip-rule="evenodd" d="M7 14C10.866 14 14 10.866 14 7C14 3.13401 10.866 0 7 0C3.13401 0 0 3.13401 0 7C0 10.866 3.13401 14 7 14ZM7.875 4.375C7.875 3.89175 7.48325 3.5 7 3.5C6.51675 3.5 6.125 3.89175 6.125 4.375V6.125H4.375C3.89175 6.125 3.5 6.51675 3.5 7C3.5 7.48325 3.89175 7.875 4.375 7.875H6.125V9.625C6.125 10.1082 6.51675 10.5 7 10.5C7.48325 10.5 7.875 10.1082 7.875 9.625V7.875H9.625C10.1082 7.875 10.5 7.48325 10.5 7C10.5 6.51675 10.1082 6.125 9.625 6.125H7.875V4.375Z" />
</svg>
