<svg stroke="#52A755" width="26" height="25" viewBox="0 0 26 25" fill="none" xmlns="http://www.w3.org/2000/svg">
<path d="M15.75 21.25C16.5784 21.25 17.25 20.5784 17.25 19.75C17.25 18.9216 16.5784 18.25 15.75 18.25C14.9216 18.25 14.25 18.9216 14.25 19.75C14.25 20.5784 14.9216 21.25 15.75 21.25Z"  stroke-width="1.5" stroke-linecap="round" stroke-linejoin="round"/>
<path d="M9.75 21.25C10.5784 21.25 11.25 20.5784 11.25 19.75C11.25 18.9216 10.5784 18.25 9.75 18.25C8.92157 18.25 8.25 18.9216 8.25 19.75C8.25 20.5784 8.92157 21.25 9.75 21.25Z"  stroke-width="1.5" stroke-linecap="round" stroke-linejoin="round"/>
<path d="M20.205 9.745L19.71 12.745C19.5918 13.4521 19.2242 14.0935 18.6739 14.5531C18.1236 15.0126 17.4269 15.2598 16.71 15.25H6.2025L5.205 6.25H17.25C17.6855 6.25056 18.1157 6.34595 18.5106 6.52953C18.9056 6.7131 19.2558 6.98047 19.537 7.31305C19.8182 7.64563 20.0236 8.03545 20.139 8.45542C20.2543 8.87539 20.2769 9.31545 20.205 9.745Z"  stroke-width="1.5" stroke-linecap="round" stroke-linejoin="round"/>
<path d="M18.75 18.2501H7.8825C7.51168 18.2523 7.15317 18.1172 6.87616 17.8706C6.59915 17.6241 6.42328 17.2837 6.3825 16.9151L6.2025 15.2501L5.205 6.25009V6.08509C5.16409 5.71522 4.98715 5.37375 4.70856 5.12704C4.42996 4.88032 4.06961 4.74598 3.6975 4.75009H3"   stroke-linecap="round" stroke-linejoin="round"/>
<circle stroke-width="0" cx="20" cy="5" r="5" fill="#CC274B"/>
</svg>
