<svg fill="#F59E0B" width="10" height="10" viewBox="0 0 10 10" xmlns="http://www.w3.org/2000/svg">
<path d="M4.27319 0.762652C4.47049 0.15545 5.32951 0.155451 5.52681 0.762652L6.23172 2.93215C6.31995 3.2037 6.573 3.38755 6.85853 3.38755H9.13967C9.77812 3.38755 10.0436 4.20454 9.52706 4.57981L7.68157 5.92064C7.45058 6.08846 7.35392 6.38594 7.44215 6.65749L8.14707 8.82699C8.34436 9.43419 7.64939 9.93912 7.13287 9.56384L5.28739 8.22302C5.05639 8.05519 4.74361 8.05519 4.51261 8.22302L2.66712 9.56384C2.15061 9.93912 1.45564 9.43419 1.65293 8.82699L2.35784 6.65749C2.44608 6.38594 2.34942 6.08846 2.11843 5.92064L0.272939 4.57981C-0.243578 4.20454 0.0218767 3.38755 0.660326 3.38755H2.94147C3.227 3.38755 3.48005 3.2037 3.56828 2.93215L4.27319 0.762652Z" />
</svg>
