<svg fill="#DD5B63" width="40" height="40" viewBox="0 0 33 33"  xmlns="http://www.w3.org/2000/svg">
<path fill-rule="evenodd" clip-rule="evenodd" d="M33 16.5C33 25.6127 25.6127 33 16.5 33C7.3873 33 0 25.6127 0 16.5C0 7.3873 7.3873 0 16.5 0C25.6127 0 33 7.3873 33 16.5ZM20.625 10.3125C20.625 12.5907 18.7782 14.4375 16.5 14.4375C14.2218 14.4375 12.375 12.5907 12.375 10.3125C12.375 8.03433 14.2218 6.1875 16.5 6.1875C18.7782 6.1875 20.625 8.03433 20.625 10.3125ZM16.4999 18.5625C12.3387 18.5625 8.75314 21.0271 7.12333 24.5762C9.39268 27.2086 12.7517 28.875 16.5 28.875C20.2481 28.875 23.6071 27.2086 25.8765 24.5763C24.2467 21.0272 20.6611 18.5625 16.4999 18.5625Z" />
</svg>
