<svg width="46" height="42" viewBox="0 0 46 42" fill="none" xmlns="http://www.w3.org/2000/svg">
<path fill-rule="evenodd" clip-rule="evenodd" d="M22.9745 0.0148385C27.4755 0.0627484 32.0088 0.345252 35.887 2.63006C40.0387 5.07677 43.7343 8.58906 45.2732 13.157C46.8163 17.7481 45.6408 22.6738 44.1738 27.2905C42.6985 31.9352 41.006 36.9451 36.8882 39.5529C32.858 42.1062 27.7134 41.2661 22.9745 40.7185C18.8049 40.1988 14.7954 38.7903 11.2167 36.5883C7.19476 34.1928 2.65406 31.9171 0.899561 27.5779C-0.900365 23.1256 0.296557 18.0843 1.90484 13.5593C3.47431 9.13507 5.91193 4.89504 9.86202 2.35664C13.6899 -0.107415 18.4197 -0.0338975 22.9745 0.0148385Z" fill="#DD5B63"/>
<g opacity="0.9">
<path fill-rule="evenodd" clip-rule="evenodd" d="M25.6325 15.2857L25.0039 9.30523L24.0127 9.40931L24.5611 14.6241L23.8764 14.202L23.5253 14.3019L22.9702 9.01529C22.9631 8.95021 22.969 8.88436 22.9875 8.82156C23.006 8.75876 23.0368 8.70025 23.078 8.64941C23.1192 8.59856 23.1702 8.55639 23.2278 8.52534C23.2854 8.49428 23.3486 8.47495 23.4138 8.46846L25.3963 8.2603C25.4614 8.25309 25.5273 8.25888 25.5902 8.27733C25.6531 8.29578 25.7117 8.32652 25.7627 8.36778C25.8136 8.40903 25.8559 8.45998 25.887 8.51767C25.9181 8.57536 25.9374 8.63865 25.9439 8.70388L26.461 13.6262L25.82 15.3997L25.6325 15.2857Z" fill="white"/>
<path fill-rule="evenodd" clip-rule="evenodd" d="M29.3282 14.8628L29.733 10.237L28.7417 10.1503L28.3287 14.8587L27.5027 13.5957H27.4382L27.7909 9.56792C27.7963 9.50266 27.8146 9.43913 27.8447 9.38098C27.8748 9.32283 27.9161 9.27122 27.9663 9.22913C28.0164 9.18704 28.0744 9.15531 28.1369 9.13576C28.1994 9.11621 28.2651 9.10924 28.3303 9.11525L30.3128 9.28872C30.3781 9.29411 30.4416 9.31239 30.4998 9.34248C30.5579 9.37258 30.6095 9.41389 30.6516 9.46405C30.6937 9.5142 30.7254 9.5722 30.745 9.63469C30.7645 9.69718 30.7715 9.76292 30.7655 9.82812L30.331 14.7917L29.3282 14.8628Z" fill="white"/>
<path fill-rule="evenodd" clip-rule="evenodd" d="M32.0161 18.9698L33.9606 11.1712L32.9941 10.93L31.4891 16.9667V14.5894H31.0554L32.1483 10.2064C32.1638 10.1428 32.1918 10.0829 32.2307 10.0302C32.2695 9.97743 32.3184 9.93291 32.3746 9.89919C32.4307 9.86547 32.493 9.84322 32.5578 9.83371C32.6226 9.8242 32.6886 9.82763 32.7521 9.84381L34.6858 10.3262C34.7495 10.3418 34.8094 10.3698 34.8621 10.4086C34.9148 10.4474 34.9594 10.4964 34.9931 10.5525C35.0268 10.6086 35.0491 10.6709 35.0586 10.7357C35.0681 10.8005 35.0646 10.8666 35.0485 10.93L33.1345 18.6055L32.0161 18.9698Z" fill="white"/>
<path fill-rule="evenodd" clip-rule="evenodd" d="M21.7545 17.1468L21.2407 9.79507L20.2494 9.86445L20.636 15.4121L19.5341 13.5948L19.5093 13.6072L19.2177 9.44318C19.2128 9.37779 19.2209 9.31208 19.2415 9.24984C19.2621 9.18761 19.2949 9.13008 19.3379 9.0806C19.381 9.03113 19.4334 8.99068 19.4921 8.9616C19.5509 8.93252 19.6149 8.91539 19.6803 8.91121L21.6677 8.77244C21.7331 8.76749 21.7988 8.77558 21.8611 8.79621C21.9233 8.81685 21.9808 8.84962 22.0303 8.89265C22.0798 8.93567 22.1202 8.98809 22.1493 9.04686C22.1784 9.10563 22.1955 9.16958 22.1997 9.23502L22.7531 17.1492L21.7545 17.1468Z" fill="white"/>
<path fill-rule="evenodd" clip-rule="evenodd" d="M20.616 17.5771L19.2878 14.4506L18.3709 14.8397L19.5339 17.5788H18.451L17.259 14.7686C17.2331 14.7085 17.2193 14.6438 17.2185 14.5782C17.2178 14.5127 17.23 14.4477 17.2545 14.3869C17.279 14.3262 17.3153 14.2709 17.3613 14.2242C17.4073 14.1776 17.4621 14.1406 17.5225 14.1152L19.3563 13.3363C19.4165 13.3103 19.4812 13.2966 19.5467 13.2958C19.6122 13.295 19.6772 13.3072 19.738 13.3317C19.7988 13.3562 19.8541 13.3925 19.9007 13.4385C19.9473 13.4846 19.9844 13.5394 20.0097 13.5998L21.699 17.5771H20.616Z" fill="white"/>
<path fill-rule="evenodd" clip-rule="evenodd" d="M27.5036 19.4555V14.04H26.5074V18.8756L25.5112 18.2958V13.5419C25.5112 13.4105 25.5634 13.2844 25.6564 13.1915C25.7493 13.0985 25.8754 13.0463 26.0069 13.0463H27.9992C28.1307 13.0463 28.2568 13.0985 28.3497 13.1915C28.4426 13.2844 28.4949 13.4105 28.4949 13.5419V20.0354L27.5036 19.4555Z" fill="white"/>
<path fill-rule="evenodd" clip-rule="evenodd" d="M23.9681 17.578L23.7574 14.5712L22.7662 14.6406L22.9661 17.578H21.9699L21.7353 14.2135C21.7304 14.1481 21.7384 14.0824 21.7591 14.0202C21.7797 13.958 21.8125 13.9004 21.8555 13.851C21.8985 13.8015 21.9509 13.761 22.0097 13.732C22.0685 13.7029 22.1324 13.6858 22.1979 13.6816L24.1845 13.5428C24.2499 13.5378 24.3156 13.5459 24.3778 13.5666C24.4401 13.5872 24.4976 13.62 24.5471 13.663C24.5965 13.706 24.637 13.7584 24.6661 13.8172C24.6951 13.876 24.7123 13.9399 24.7165 14.0054L24.9643 17.5788L23.9681 17.578Z" fill="white"/>
<path fill-rule="evenodd" clip-rule="evenodd" d="M30.7657 19.4795L31.1432 15.1643L30.1519 15.0775L29.7389 19.8223L28.7089 20.1659L29.2012 14.4952C29.2066 14.4299 29.2248 14.3664 29.2549 14.3083C29.285 14.2501 29.3264 14.1985 29.3765 14.1564C29.4267 14.1143 29.4847 14.0826 29.5471 14.063C29.6096 14.0435 29.6754 14.0365 29.7406 14.0425L31.7231 14.216C31.7883 14.2214 31.8518 14.2397 31.91 14.2698C31.9681 14.2999 32.0198 14.3412 32.0618 14.3913C32.1039 14.4415 32.1357 14.4995 32.1552 14.562C32.1748 14.6245 32.1817 14.6902 32.1757 14.7554L31.7924 19.1334L30.7657 19.4795Z" fill="white"/>
<path fill-rule="evenodd" clip-rule="evenodd" d="M31.987 30.5293C32.1191 30.5293 32.2458 30.4768 32.3392 30.3834C32.4326 30.29 32.4851 30.1633 32.4851 30.0312C32.4851 29.8991 32.4326 29.7724 32.3392 29.679C32.2458 29.5856 32.1191 29.5331 31.987 29.5331H20.0293C19.8972 29.5331 19.7706 29.5856 19.6771 29.679C19.5837 29.7724 19.5312 29.8991 19.5312 30.0312C19.5312 30.1633 19.5837 30.29 19.6771 30.3834C19.7706 30.4768 19.8972 30.5293 20.0293 30.5293H31.987Z" fill="white"/>
<path fill-rule="evenodd" clip-rule="evenodd" d="M28.1636 20.4451C29.487 20.2955 30.7881 19.9905 32.0401 19.5364C32.598 19.3353 33.1419 19.0975 33.6683 18.8244C33.9524 18.6757 34.149 18.5576 34.2564 18.4857C34.3106 18.4493 34.3572 18.4025 34.3933 18.3481C34.4295 18.2936 34.4546 18.2326 34.4672 18.1685C34.4797 18.1044 34.4796 18.0384 34.4666 17.9743C34.4537 17.9103 34.4283 17.8494 34.3919 17.7952C34.3554 17.7409 34.3086 17.6944 34.2542 17.6582C34.1998 17.6221 34.1388 17.597 34.0746 17.5844C34.0105 17.5718 33.9445 17.572 33.8805 17.5849C33.8164 17.5978 33.7555 17.6232 33.7013 17.6597C33.6228 17.7126 33.4535 17.8117 33.2057 17.9439C32.7183 18.1972 32.2147 18.418 31.6982 18.6047C30.3704 19.0835 28.9853 19.3857 27.5787 19.5034C27.0716 19.5472 27.4714 20.5244 28.1636 20.4451Z" fill="white"/>
<path fill-rule="evenodd" clip-rule="evenodd" d="M31.4955 29.9494C31.4736 30.0798 31.5044 30.2135 31.5811 30.3212C31.6578 30.4288 31.7741 30.5016 31.9044 30.5235C32.0348 30.5454 32.1685 30.5147 32.2762 30.438C32.3838 30.3613 32.4566 30.245 32.4785 30.1146L34.4709 18.1562C34.4928 18.0258 34.4621 17.8921 34.3854 17.7844C34.3087 17.6768 34.1924 17.604 34.062 17.5821C33.9317 17.5602 33.798 17.5909 33.6903 17.6676C33.5826 17.7443 33.5098 17.8606 33.4879 17.9909L31.4955 29.9494Z" fill="white"/>
<path fill-rule="evenodd" clip-rule="evenodd" d="M28.0039 28.4494C27.8829 28.753 27.6781 29.0161 27.4135 29.2079C27.1488 29.3998 26.8351 29.5126 26.5088 29.5331H15.5465C15.2198 29.5139 14.9054 29.4017 14.6403 29.2096C14.3753 29.0176 14.1707 28.7538 14.0506 28.4494L13.5302 26.8849L12.5852 27.1996L13.1064 28.7641C13.2926 29.2669 13.6239 29.7031 14.0583 30.0174C14.4927 30.3316 15.0107 30.5098 15.5465 30.5293H26.5088C27.0443 30.5086 27.5618 30.33 27.996 30.0159C28.4302 29.7018 28.7617 29.2662 28.9489 28.7641L29.4701 27.1996L28.5252 26.8849L28.0039 28.4494Z" fill="white"/>
<path fill-rule="evenodd" clip-rule="evenodd" d="M21.0282 16.5818C16.3768 16.5818 12.5597 19.4448 12.5597 23.0579H13.5559C13.5559 20.0676 16.8749 17.578 21.0282 17.578C25.1815 17.578 28.5021 20.0676 28.5021 23.0579H29.4934C29.4934 19.4448 25.6788 16.5818 21.0282 16.5818Z" fill="white"/>
<path fill-rule="evenodd" clip-rule="evenodd" d="M13.5534 22.5598H28.5046C28.7665 22.56 29.0258 22.6118 29.2676 22.7124C29.5094 22.8129 29.729 22.9602 29.9138 23.1457C30.0987 23.3312 30.2451 23.5514 30.3447 23.7936C30.4444 24.0358 30.4953 24.2952 30.4945 24.5571V25.5434C30.4953 25.8053 30.4444 26.0647 30.3447 26.3069C30.2451 26.5491 30.0987 26.7693 29.9138 26.9548C29.729 27.1403 29.5094 27.2876 29.2676 27.3881C29.0258 27.4887 28.7665 27.5405 28.5046 27.5407H13.5534C13.2915 27.5405 13.0322 27.4887 12.7904 27.3881C12.5486 27.2876 12.329 27.1403 12.1442 26.9548C11.9593 26.7693 11.8129 26.5491 11.7133 26.3069C11.6136 26.0647 11.5627 25.8053 11.5635 25.5434V24.5571C11.5627 24.2952 11.6136 24.0358 11.7133 23.7936C11.8129 23.5514 11.9593 23.3312 12.1442 23.1457C12.329 22.9602 12.5486 22.8129 12.7904 22.7124C13.0322 22.6118 13.2915 22.56 13.5534 22.5598ZM12.5622 25.5434C12.5608 25.6744 12.5855 25.8044 12.6347 25.9258C12.684 26.0472 12.7568 26.1576 12.849 26.2507C12.9411 26.3438 13.0509 26.4177 13.1718 26.4681C13.2927 26.5186 13.4224 26.5445 13.5534 26.5445H28.5046C28.6356 26.5445 28.7653 26.5186 28.8862 26.4681C29.0071 26.4177 29.1169 26.3438 29.209 26.2507C29.3012 26.1576 29.374 26.0472 29.4233 25.9258C29.4725 25.8044 29.4972 25.6744 29.4958 25.5434V24.5571C29.4972 24.4261 29.4725 24.2961 29.4233 24.1747C29.374 24.0533 29.3012 23.9429 29.209 23.8498C29.1169 23.7567 29.0071 23.6828 28.8862 23.6323C28.7653 23.5819 28.6356 23.5559 28.5046 23.5559H13.5534C13.4224 23.5559 13.2927 23.5819 13.1718 23.6323C13.0509 23.6828 12.9411 23.7567 12.849 23.8498C12.7568 23.9429 12.684 24.0533 12.6347 24.1747C12.5855 24.2961 12.5608 24.4261 12.5622 24.5571V25.5434Z" fill="white"/>
<path fill-rule="evenodd" clip-rule="evenodd" d="M25.1592 25.9011C25.2053 25.9476 25.2601 25.9846 25.3206 26.0099C25.3811 26.0351 25.4459 26.0481 25.5115 26.0481C25.577 26.0481 25.6419 26.0351 25.7023 26.0099C25.7628 25.9846 25.8177 25.9476 25.8638 25.9011L28.3543 23.4106L27.6497 22.706L25.5127 24.8454L23.3733 22.7051L22.6678 23.4106L25.1592 25.9011Z" fill="white"/>
</g>
</svg>
