<svg width="46" height="42" viewBox="0 0 46 42" fill="none" xmlns="http://www.w3.org/2000/svg">
<path fill-rule="evenodd" clip-rule="evenodd" d="M22.9745 0.268867C27.4755 0.316777 32.0088 0.59928 35.887 2.88409C40.0387 5.3308 43.7343 8.84309 45.2732 13.4111C46.8163 18.0021 45.6408 22.9278 44.1738 27.5445C42.6985 32.1893 41.006 37.1992 36.8882 39.8069C32.858 42.3602 27.7134 41.5201 22.9745 40.9725C18.8049 40.4528 14.7954 39.0444 11.2167 36.8423C7.19476 34.4468 2.65406 32.1711 0.899561 27.8319C-0.900365 23.3796 0.296557 18.3383 1.90484 13.8133C3.47431 9.3891 5.91193 5.14907 9.86202 2.61067C13.6899 0.146614 18.4197 0.220131 22.9745 0.268867Z" fill="#5BBD4E"/>
<path d="M32.408 16.1626C32.3806 16.0931 32.3402 16.0294 32.289 15.9751C32.289 15.9751 32.289 15.9701 32.2849 15.9684C32.231 15.9128 32.1667 15.8682 32.0957 15.8371C32.0277 15.8084 31.9548 15.7927 31.881 15.7909H31.862C31.7934 15.7915 31.7255 15.8041 31.6612 15.828L31.6447 15.833C31.575 15.8604 31.5111 15.9008 31.4564 15.9519L31.4498 15.9561L30.8534 16.5277L31.4473 14.9656C31.617 14.5165 31.6598 14.0292 31.5711 13.5573C31.4824 13.0854 31.2655 12.647 30.9442 12.2901C32.4757 11.1965 32.5608 10.3217 32.4526 9.86902C32.3838 9.60833 32.2305 9.37778 32.0168 9.21339C31.8031 9.049 31.541 8.96003 31.2714 8.96038C30.6572 8.94856 30.0597 9.15987 29.5895 9.55513C29.5013 8.94621 29.1937 8.39046 28.7247 7.99227C28.5234 7.8128 28.2685 7.70494 27.9995 7.68552C27.7306 7.66609 27.4628 7.73619 27.2378 7.88489C26.8562 8.1517 26.3391 8.86209 26.7579 10.6975C26.2802 10.7505 25.8263 10.934 25.446 11.2279C25.0657 11.5218 24.7737 11.9147 24.602 12.3636L23.2977 15.7975C23.204 15.7863 23.1091 15.798 23.0209 15.8313C22.9687 15.2997 22.8859 14.7716 22.7731 14.2495C21.933 10.3531 19.6838 7.64121 17.6468 8.08148C16.1665 8.40033 15.2727 10.2886 15.2174 12.7899C15.1953 12.9189 15.1953 13.0507 15.2174 13.1798C15.2308 14.0647 15.3326 14.946 15.5214 15.8107C15.5784 16.0725 15.642 16.3303 15.7122 16.5847L15.0514 15.9495L15.0439 15.9453C14.9897 15.8943 14.9264 15.8539 14.8572 15.8264L14.8382 15.8206C14.7745 15.7967 14.7072 15.7842 14.6392 15.7834H14.6152C14.5423 15.7855 14.4703 15.8009 14.4029 15.8288C14.332 15.8597 14.2678 15.904 14.2138 15.9594C14.2138 15.9594 14.2138 15.9643 14.2096 15.9668C14.1587 16.0211 14.1183 16.0844 14.0907 16.1535C14.0907 16.1601 14.0907 16.1659 14.0849 16.1725C14.061 16.2362 14.0485 16.3035 14.0477 16.3716V30.3315C14.0653 30.687 14.2228 31.0212 14.4859 31.2609C14.7491 31.5007 15.0964 31.6265 15.452 31.611H31.0467C31.4023 31.6265 31.7496 31.5007 32.0127 31.2609C32.2758 31.0212 32.4334 30.687 32.4509 30.3315V16.3716C32.4503 16.3033 32.4377 16.2356 32.4138 16.1717C32.4121 16.1685 32.4101 16.1655 32.408 16.1626ZM30.893 10.1846C31.0208 10.1383 31.1595 10.1314 31.2912 10.1647C31.2788 10.3167 31.0301 10.8404 29.8745 11.569L29.5441 11.4434C29.6749 11.1551 29.8614 10.8954 30.0929 10.6794C30.3244 10.4633 30.5963 10.2952 30.893 10.1846ZM27.9011 8.87613C28.0216 8.93873 28.1206 9.03597 28.1853 9.15533C28.4829 9.72043 28.5444 10.3804 28.3563 10.9908L28.0333 10.8677C27.6558 9.56174 27.8094 9.00169 27.9011 8.87613ZM25.7155 12.7849C25.85 12.4317 26.1192 12.1464 26.464 11.9915C26.8087 11.8367 27.2008 11.8249 27.5542 11.9589L28.5273 12.3289H28.5322L29.5053 12.699C29.8583 12.8336 30.1434 13.1026 30.2983 13.4472C30.4532 13.7917 30.465 14.1836 30.3313 14.5369L29.3046 17.2389L27.9606 15.9511C27.8497 15.8441 27.7017 15.7843 27.5476 15.7843C27.3935 15.7843 27.2454 15.8441 27.1346 15.9511L25.3941 17.6222L24.2823 16.5541L25.7155 12.7849ZM17.9003 9.24289C19.0684 8.99508 20.8741 11.0882 21.6134 14.4981C21.782 15.2734 21.8747 16.0632 21.8901 16.8564L21.093 17.6222L19.3533 15.9511C19.2425 15.8441 19.0944 15.7843 18.9403 15.7843C18.7862 15.7843 18.6382 15.8441 18.5273 15.9511L17.1734 17.2513C16.9923 16.7538 16.8431 16.2453 16.7266 15.7289C17.6417 15.1702 18.6572 14.7959 19.716 14.627C19.8671 14.5911 19.9982 14.4974 20.0812 14.3662C20.1642 14.2349 20.1925 14.0763 20.1601 13.9244C20.1278 13.7725 20.0373 13.6393 19.9079 13.5532C19.7786 13.4672 19.6208 13.4351 19.4682 13.4639C18.5495 13.6504 17.6538 13.9359 16.7968 14.3156C16.7233 14.3503 16.6175 14.3982 16.4994 14.4634C16.4428 14.0333 16.4103 13.6003 16.4019 13.1665C16.4031 13.1459 16.4031 13.1252 16.4019 13.1046C16.4019 13.0633 16.4019 13.022 16.4019 12.9807C16.8716 12.4247 17.5383 12.0722 18.2622 11.9969C18.3401 11.9822 18.4142 11.9521 18.4803 11.9083C18.5464 11.8645 18.6031 11.8079 18.647 11.7419C18.6909 11.676 18.7212 11.6018 18.7361 11.524C18.7509 11.4461 18.7501 11.366 18.7335 11.2885C18.717 11.211 18.6852 11.1375 18.6399 11.0725C18.5945 11.0074 18.5367 10.9521 18.4697 10.9097C18.4027 10.8674 18.3279 10.8388 18.2497 10.8258C18.1715 10.8128 18.0915 10.8155 18.0143 10.8338C17.5083 10.9412 17.0187 11.1148 16.558 11.3501C16.7951 10.1581 17.2957 9.37257 17.9003 9.24289ZM31.0483 30.4273H15.4462C15.406 30.4312 15.3654 30.425 15.3282 30.4093C15.291 30.3936 15.2583 30.3688 15.2331 30.3373V17.7766L16.378 18.8761C16.4888 18.9831 16.6369 19.0429 16.791 19.0429C16.9451 19.0429 17.0931 18.9831 17.204 18.8761L18.9436 17.2058L20.6833 18.8769C20.7941 18.9839 20.9422 19.0437 21.0963 19.0437C21.2504 19.0437 21.3984 18.9839 21.5093 18.8769L22.902 17.5396L22.9218 17.5197L23.2522 17.2058L24.9869 18.8761C25.0978 18.9831 25.2458 19.0429 25.3999 19.0429C25.554 19.0429 25.7021 18.9831 25.8129 18.8761L27.5476 17.205L29.2905 18.8761C29.4014 18.9831 29.5495 19.0429 29.7035 19.0429C29.8576 19.0429 30.0057 18.9831 30.1166 18.8761L31.2647 17.775V30.3356C31.2391 30.3676 31.2059 30.3928 31.1681 30.4088C31.1303 30.4248 31.0892 30.4312 31.0483 30.4273Z" fill="white"/>
<path d="M25.5353 26.6243H25.1158L24.9658 26.4806C25.5484 25.8018 25.846 24.9238 25.795 24.0307C25.744 23.1377 25.3484 22.2991 24.6923 21.6911C24.0362 21.0831 23.1707 20.7529 22.2763 20.7699C21.382 20.787 20.5283 21.1498 19.8958 21.7823C19.2633 22.4148 18.9004 23.2678 18.8834 24.1621C18.8664 25.0565 19.1967 25.9226 19.8047 26.5788C20.4127 27.2349 21.2518 27.6299 22.1448 27.6809C23.0379 27.7319 23.9159 27.4349 24.5947 26.8523L24.7383 27.001V27.4206L26.5856 29.2627L27.3769 28.4713L25.5353 26.6243ZM22.3473 26.6243C21.8745 26.6242 21.4125 26.4838 21.0195 26.221C20.6265 25.9583 20.3202 25.5849 20.1394 25.148C19.9586 24.7112 19.9116 24.2306 20.0039 23.7669C20.0962 23.3032 20.3238 22.8774 20.6581 22.5431C20.9925 22.2089 21.419 21.9813 21.8826 21.8891C22.3463 21.7969 22.8269 21.8443 23.2637 22.0253C23.7004 22.2062 24.0731 22.5126 24.3357 22.9058C24.5984 23.2989 24.7391 23.761 24.7391 24.2338C24.7394 24.5479 24.6776 24.8589 24.5576 25.1492C24.4375 25.4394 24.261 25.7031 24.0389 25.9252C23.8168 26.1472 23.5531 26.3233 23.2629 26.4433C22.9726 26.5632 22.6614 26.6248 22.3473 26.6243Z" fill="white"/>
</svg>
