<svg width="46" height="42" viewBox="0 0 46 42" fill="none" xmlns="http://www.w3.org/2000/svg">
<path fill-rule="evenodd" clip-rule="evenodd" d="M22.9745 0.0148385C27.4755 0.0627484 32.0088 0.345252 35.887 2.63006C40.0387 5.07677 43.7343 8.58906 45.2732 13.157C46.8163 17.7481 45.6408 22.6738 44.1738 27.2905C42.6985 31.9352 41.006 36.9451 36.8882 39.5529C32.858 42.1062 27.7134 41.2661 22.9745 40.7185C18.8049 40.1988 14.7954 38.7903 11.2167 36.5883C7.19476 34.1928 2.65406 31.9171 0.899561 27.5779C-0.900365 23.1256 0.296557 18.0843 1.90484 13.5593C3.47431 9.13507 5.91193 4.89504 9.86202 2.35664C13.6899 -0.107415 18.4197 -0.0338975 22.9745 0.0148385Z" fill="#15BFCA"/>
<path d="M27.4597 14.9793V14.4457H27.9636C28.0972 14.4457 28.2254 14.3926 28.3199 14.2981C28.4144 14.2036 28.4675 14.0754 28.4675 13.9418V10.4163C28.4675 10.2826 28.4144 10.1545 28.3199 10.06C28.2254 9.96547 28.0972 9.91238 27.9636 9.91238H17.886C17.7524 9.91238 17.6242 9.96547 17.5297 10.06C17.4352 10.1545 17.3821 10.2826 17.3821 10.4163V13.9418C17.3821 14.0754 17.4352 14.2036 17.5297 14.2981C17.6242 14.3926 17.7524 14.4457 17.886 14.4457H18.3899V14.9793C17.4165 15.1028 16.5216 15.5772 15.8731 16.3136C15.2246 17.05 14.8671 17.9977 14.8677 18.9789V28.5485C14.8677 28.8131 14.9198 29.0751 15.021 29.3195C15.1223 29.5639 15.2707 29.786 15.4578 29.9731C15.6448 30.1602 15.8669 30.3086 16.1114 30.4099C16.3558 30.5111 16.6178 30.5632 16.8824 30.5632H28.9705C29.2351 30.5632 29.4971 30.5111 29.7415 30.4099C29.986 30.3086 30.2081 30.1602 30.3951 29.9731C30.5822 29.786 30.7306 29.5639 30.8319 29.3195C30.9331 29.0751 30.9852 28.8131 30.9852 28.5485V18.9789C30.9857 17.9972 30.6277 17.0491 29.9786 16.3126C29.3294 15.5762 28.4337 15.102 27.4597 14.9793ZM27.4597 10.9193V13.4379H18.3932V10.9201L27.4597 10.9193ZM26.9558 19.482V26.5338H15.8754V19.482H26.9558ZM29.9783 28.5485C29.9783 28.8158 29.8721 29.0721 29.6831 29.2611C29.4941 29.4501 29.2378 29.5563 28.9705 29.5563H16.8824C16.6151 29.5563 16.3588 29.4501 16.1698 29.2611C15.9808 29.0721 15.8746 28.8158 15.8746 28.5485V27.5408H27.4597C27.5934 27.5408 27.7215 27.4877 27.816 27.3932C27.9105 27.2987 27.9636 27.1705 27.9636 27.0369V18.9789C27.9636 18.8453 27.9105 18.7171 27.816 18.6226C27.7215 18.5281 27.5934 18.475 27.4597 18.475H15.92C16.0389 17.7719 16.4026 17.1334 16.9468 16.6725C17.491 16.2116 18.1806 15.958 18.8938 15.9565C19.0274 15.9565 19.1556 15.9034 19.2501 15.8089C19.3446 15.7144 19.3976 15.5862 19.3976 15.4526V14.4457H26.4495V15.4534C26.4495 15.5871 26.5026 15.7152 26.5971 15.8097C26.6916 15.9042 26.8197 15.9573 26.9534 15.9573C27.3503 15.9573 27.7433 16.0355 28.11 16.1874C28.4767 16.3393 28.8099 16.5619 29.0906 16.8426C29.3712 17.1232 29.5939 17.4564 29.7458 17.8231C29.8976 18.1898 29.9758 18.5828 29.9758 18.9798L29.9783 28.5485Z" fill="white"/>
<path d="M19.401 25.023H23.4304C23.9648 25.023 24.4772 24.8108 24.855 24.4329C25.2329 24.0551 25.4451 23.5426 25.4451 23.0083C25.4451 22.474 25.2329 21.9615 24.855 21.5837C24.4772 21.2059 23.9648 20.9936 23.4304 20.9936H19.401C18.8667 20.9936 18.3543 21.2059 17.9764 21.5837C17.5986 21.9615 17.3864 22.474 17.3864 23.0083C17.3864 23.5426 17.5986 24.0551 17.9764 24.4329C18.3543 24.8108 18.8667 25.023 19.401 25.023ZM24.4398 23.0083C24.4398 23.2756 24.3337 23.5319 24.1447 23.7209C23.9557 23.9099 23.6994 24.0161 23.4321 24.0161H21.9196V22.0014H23.4304C23.6976 22.0014 23.9538 22.1074 24.1427 22.2963C24.3317 22.4851 24.438 22.7412 24.4382 23.0083H24.4398ZM19.401 22.0006H20.9119V24.0153H19.401C19.1389 24.0077 18.89 23.8983 18.7072 23.7102C18.5244 23.5221 18.4221 23.2702 18.4221 23.0079C18.4221 22.7456 18.5244 22.4937 18.7072 22.3056C18.89 22.1175 19.1389 22.0081 19.401 22.0006Z" fill="white"/>
</svg>
